# xmcd
#
# Track frame offsets: 
#        150
#        25456
#        54335
#        80087
#        104814
#        136495
#        163977
#        182163
#        200642
#        237406
#
# Disc length: 3639 seconds
#
# Revision: 1
# Processed by: cddbd v1.5.2PL0 Copyright (c) Steve Scherf et al.
# Submitted via: ExactAudioCopy v0.99pb4
#
DISCID=970e350a
DTITLE=Bruce Springsteen - Brussels, 5-30-05(Zimmy 21 version-Disc 2)
DYEAR=2005
DGENRE=Rock and Roll
TTITLE0=The Rising
TTITLE1=Further On (Up The Road)
TTITLE2=Jesus Was An Only Son
TTITLE3=Leah
TTITLE4=The Hitter
TTITLE5=Matamoros Banks
TTITLE6=Ramrod
TTITLE7=My Best Was Never Good Enough
TTITLE8=The Promised Land
TTITLE9=Dream Baby Dream
EXTD=
EXTT0=
EXTT1=
EXTT2=
EXTT3=
EXTT4=
EXTT5=
EXTT6=
EXTT7=
EXTT8=
EXTT9=
PLAYORDER=
